# xmcd
#
# Track frame offsets: 
#        150
#        15488
#        34239
#        47825
#        71389
#        83865
#        101337
#        119277
#        131957
#        147092
#        167500
#        188277
#        200559
#        215123
#        228359
#        247740
#        265681
#        283889
#
# Disc length: 4050 seconds
#
# Revision: 1
# Processed by: cddbd v1.5.2PL0 Copyright (c) Steve Scherf et al.
# Submitted via: ExactAudioCopy v1.0b3
#
DISCID=f90fd012
DTITLE=Kevin Fowler - Best Of ... So Far
DYEAR=2010
DGENRE=Texas Country
TTITLE0=Loose, Loud and Crazy
TTITLE1=Long Line of Losers
TTITLE2=Pound Sign
TTITLE3=Beer, Bait and Ammo
TTITLE4=Beer Season
TTITLE5=100% Texan
TTITLE6=Best Mistake I Ever Made
TTITLE7=Butterbean
TTITLE8=Senorita Mas Fina
TTITLE9=Not Lovin' Anymore
TTITLE10=The Lord Loves the Drinkin' Man
TTITLE11=Triple Crown
TTITLE12=What I Would'nt Give For Your Love
TTITLE13=Ain't Drinkin' Anymore
TTITLE14=If These Old Walls Could Talk
TTITLE15=Speak of the Devil
TTITLE16=Hard Man to Love 
TTITLE17=Don't Touch My Willie
EXTD=
EXTT0=
EXTT1=
EXTT2=
EXTT3=
EXTT4=
EXTT5=
EXTT6=
EXTT7=
EXTT8=
EXTT9=
EXTT10=
EXTT11=
EXTT12=
EXTT13=
EXTT14=
EXTT15=
EXTT16=
EXTT17=
PLAYORDER=
